# xmcd
# 
# Track frame offsets:
#     150
#     30029
#     54453
#     69406
# 
# Disc length: 1372
# 
# Revision: 0
# Processed by: cddbd v1.5.2PL0 Copyright (c) Steve Scherf et al.
# Submitted via: fre:ac v1.0.17
# 
DISCID=25055a04
DTITLE=Fanfare Zambaleta - Fanfare Zambaleta
DYEAR=2014
DGENRE=Balkan
TTITLE0=Celo Skopje
TTITLE1=Vo Strumica Na Ulica
TTITLE2=Zv'jezda Tjera Mjeseca
TTITLE3=Lane Moje/Ramo Ramo
EXTD=
EXTT0=
EXTT1=
EXTT2=
EXTT3=
PLAYORDER=
